<svg width="30" height="30" viewBox="0 0 30 30" fill="none" xmlns="http://www.w3.org/2000/svg">
<path d="M0 26.3115L2.58197 18.5656L21.1475 0L26.3115 5.16393L7.7459 23.7295L0 26.3115ZM4.79508 19.7951L3.93443 22.3771L6.51639 21.5164L22.8689 5.16393L21.1475 3.44262L4.79508 19.7951Z" transform="translate(0 3.68852)" fill="#457B9D"/>
<path d="M5.16394 7.9918L0 2.82787L1.72131 1.10656C3.19672 -0.368852 5.40983 -0.368852 6.88524 1.10656C7.62295 1.84426 7.9918 2.70492 7.9918 3.68852C7.9918 4.67213 7.62295 5.53279 6.88524 6.27049L5.16394 7.9918ZM3.44262 2.82787L5.16394 4.54918C5.40984 4.30328 5.53279 4.05738 5.53279 3.68852C5.53279 3.31967 5.40984 3.07377 5.16394 2.82787C4.67213 2.33607 3.93443 2.33607 3.44262 2.82787Z" transform="translate(22.0082)" fill="#457B9D"/>
</svg>
